<svg width="432" height="397" viewBox="0 0 432 397" fill="none" xmlns="http://www.w3.org/2000/svg">
<path opacity="0.34" d="M63.067 388.866C97.898 388.866 126.134 383.343 126.134 376.529C126.134 369.715 97.898 364.192 63.067 364.192C28.2361 364.192 0 369.715 0 376.529C0 383.343 28.2361 388.866 63.067 388.866Z" fill="#575FA8"/>
<path d="M69.9694 354.27L68.6753 375.321H106.291C106.291 375.321 90.9342 365.054 84.1185 361.776L83.342 354.356H69.9694V354.27Z" fill="#F08789"/>
<path d="M81.6165 187.241L84.1185 359.964H69.2792C69.2792 359.964 52.8869 292.324 60.9105 272.567L46.5889 187.241H81.6165V187.241Z" fill="#32388D"/>
<path opacity="0.2" d="M81.6167 187.241H46.6753L60.9969 272.567C58.2361 279.383 58.3224 291.979 59.7028 305.524L83.7736 334.944L81.6167 187.241Z" fill="#020203"/>
<path d="M30.2829 357.031L24.5024 378.082H65.5694C65.5694 378.082 48.2281 367.815 41.3261 364.537L42.6202 357.117H30.2829V357.031Z" fill="#F08789"/>
<path d="M82.6519 185.085L68.0714 271.705L43.483 359.964H28.73C28.73 359.964 33.4751 275.242 48.6595 266.442L36.6673 185.171H82.6519V185.085Z" fill="#32388D"/>
<path opacity="0.2" d="M81.7026 191.038L82.6516 185.085H36.667L37.7023 192.159L81.7888 197.767L81.7026 191.038Z" fill="#020203"/>
<path d="M106.377 125.296C106.377 125.296 115.523 110.543 129.758 107.178L124.15 113.908C124.15 113.908 126.825 120.896 123.46 124.433C120.095 127.97 114.66 128.229 114.66 128.229L110.864 132.457L106.377 125.296Z" fill="#F5ABAE"/>
<path d="M70.2284 113.217L82.7383 138.755L107.24 122.19L113.366 131.594C113.366 131.594 92.056 171.626 82.652 168.692C73.248 165.759 65.1382 144.622 65.1382 144.622L70.2284 113.217Z" fill="white"/>
<path opacity="0.2" d="M82.652 138.755L70.1421 113.217L65.1382 144.622C65.1382 144.622 73.248 165.759 82.652 168.692C82.9108 168.779 83.0834 168.779 83.3422 168.779L94.6442 130.559L82.652 138.755Z" fill="#020203"/>
<path d="M79.7182 52.9111C79.7182 52.9111 81.1849 65.9386 82.6515 69.1308H78.5966C78.5966 69.1308 78.9417 81.6407 76.3535 83.1937C74.5417 84.3152 69.2789 83.1937 68.0711 84.6603C66.8632 86.127 65.0514 96.5663 65.0514 96.5663L48.7454 95.1859L50.3847 80.6054C50.3847 80.6054 41.2395 69.6485 44.0003 56.1896C46.7611 42.7307 77.3025 40.4012 79.7182 52.9111Z" fill="#F5ABAE"/>
<path opacity="0.2" d="M59.3574 74.6525L46.5024 73.9623C48.4005 78.0172 50.4711 80.5192 50.4711 80.5192L48.8319 95.0997L65.1378 96.4801C65.1378 96.4801 66.9496 86.0408 68.1575 84.5741C68.5888 84.0565 69.6241 83.7976 70.832 83.7976C64.5339 82.0721 58.8398 74.9976 59.3574 74.6525Z" fill="#020203"/>
<path d="M80.2364 57.2249C80.2364 57.2249 76.7854 59.2955 69.8834 54.7229C69.8834 54.7229 65.2245 63.0916 61.1696 61.97C61.1696 61.97 60.9971 67.923 60.1343 68.3544C59.2716 68.7858 57.5461 63.2642 55.8206 62.9191C54.0951 62.574 52.2833 64.2994 54.1813 69.476C55.9931 74.6525 59.3578 74.6525 59.3578 74.6525L50.3852 80.6054C50.3852 80.6054 43.3107 78.3623 41.9303 72.4956C41.9303 72.4956 32.9577 63.7818 38.393 57.57C38.393 57.57 32.44 52.566 46.3303 46.4405C46.3303 46.4405 49.6088 34.362 56.0794 39.8836C56.0794 39.8836 68.0716 30.911 71.005 38.9346C71.005 38.9346 86.4482 37.6405 87.3972 46.0091C88.3462 54.3778 84.6364 56.3621 84.6364 56.3621C84.6364 56.3621 85.4992 63.2642 81.1854 63.6093L80.2364 57.2249Z" fill="#212226"/>
<path d="M37.4435 112.096C37.4435 112.096 29.3337 110.111 30.7141 101.484C32.0945 92.7702 43.4828 88.8878 66.8633 94.3232C69.6241 94.9271 71.781 99.4997 69.9692 103.468C69.9692 103.468 77.4752 121.931 79.8046 137.029C82.134 152.127 83.3419 167.916 85.9301 175.249C88.4321 182.583 86.3615 190.779 79.3732 190.779C72.4712 190.779 45.2083 190.779 36.7533 190.779C28.2984 190.779 27.2631 179.045 30.6278 166.794C33.9063 154.629 38.8239 120.896 37.4435 112.096Z" fill="#444496"/>
<path d="M56.4249 107.351C69.7112 110.198 60.4798 136.598 57.8053 144.104C55.1307 151.696 52.1974 158.426 56.4249 164.292C60.6524 170.159 68.072 176.716 68.072 176.716L63.068 187.241C63.068 187.241 35.3738 183.704 28.7306 175.508C22.1737 167.312 25.8835 149.022 31.5777 136.425C37.2718 123.829 46.5032 105.28 56.4249 107.351Z" fill="white"/>
<path d="M62.2913 189.053C61.9462 188.881 61.8599 188.536 61.9462 188.19L68.6756 173.524C68.8482 173.179 69.1933 173.092 69.5384 173.179C69.8835 173.351 69.9697 173.696 69.8835 174.041L63.154 188.708C62.9815 189.053 62.6364 189.139 62.2913 189.053Z" fill="#A77071"/>
<path d="M55.992 239.006C55.992 241.163 54.2665 242.975 52.0233 242.975C49.8665 242.975 48.0547 241.163 48.0547 239.006C48.0547 236.849 49.7802 235.038 52.0233 235.038C54.2665 235.124 55.992 236.849 55.992 239.006Z" fill="#59BCAB"/>
<path d="M31.3175 237.971C25.7959 237.971 21.3096 233.485 21.3096 227.963C21.3096 222.441 25.7959 217.955 31.3175 217.955C36.8391 217.955 41.3254 222.441 41.3254 227.963C41.3254 233.485 36.8391 237.971 31.3175 237.971ZM31.3175 223.218C28.6429 223.218 26.5723 225.375 26.5723 227.963C26.5723 230.551 28.7292 232.708 31.3175 232.708C33.992 232.708 36.0626 230.551 36.0626 227.963C36.0626 225.375 33.992 223.218 31.3175 223.218Z" fill="#FCC450"/>
<path d="M319.045 42.213H315.766V45.5777C315.766 47.1307 314.558 48.3385 313.005 48.3385C311.453 48.3385 310.245 47.1307 310.245 45.5777V42.213H306.88C305.327 42.213 304.119 41.0051 304.119 39.4522C304.119 37.8992 305.327 36.6914 306.88 36.6914H310.245V33.3267C310.245 31.7737 311.453 30.5659 313.005 30.5659C314.558 30.5659 315.766 31.7737 315.766 33.3267V36.6914H319.131C320.684 36.6914 321.892 37.8992 321.892 39.4522C321.806 41.0051 320.598 42.213 319.045 42.213Z" fill="#59BCAB"/>
<path d="M346.135 24.7854C346.135 26.9423 344.41 28.7541 342.166 28.7541C340.01 28.7541 338.198 27.0286 338.198 24.7854C338.198 22.6285 340.01 20.8168 342.166 20.8168C344.323 20.8168 346.135 22.5423 346.135 24.7854Z" fill="#345185"/>
<path d="M141.923 113.563C130.017 83.7114 136.142 48.4249 160.299 24.2679C171.947 12.6208 186.182 5.11484 201.194 1.92267L210.08 42.2131C191.358 46.268 177.382 62.9191 177.382 82.8486C177.382 88.284 178.417 93.4605 180.315 98.2919L141.923 113.563Z" fill="#345185"/>
<path d="M160.299 141.429C159.695 140.825 159.005 140.135 158.401 139.445L188.511 111.233C196.103 119.343 206.887 124.347 218.88 124.347C241.829 124.347 260.464 105.711 260.464 82.7622C260.464 66.37 251.06 52.2209 237.256 45.4914L255.547 8.47943C263.484 12.3618 270.904 17.6246 277.46 24.1815C309.814 56.5346 309.814 109.076 277.46 141.429C245.194 173.782 192.652 173.782 160.299 141.429Z" fill="white"/>
<path d="M218.967 41.264C215.861 41.264 212.928 41.6091 210.081 42.213L201.281 1.9226C219.399 -2.04605 238.638 0.110828 255.634 8.56578L237.344 45.5778C231.822 42.7307 225.524 41.264 218.967 41.264Z" fill="#59BCAB"/>
<path d="M158.402 139.445C151.155 131.68 145.633 122.88 141.923 113.562L180.316 98.2917C182.214 103.123 185.061 107.523 188.598 111.319L158.402 139.445Z" fill="#C1E4EE"/>
<path d="M407.822 64.3856V342.019C407.822 346.678 404.026 350.474 399.367 350.474H221.813C217.154 350.474 213.358 346.678 213.358 342.019V64.3856C213.358 59.7268 217.154 55.8444 221.813 55.8444H399.281C404.026 55.8444 407.822 59.6405 407.822 64.3856Z" fill="#2E7EFF"/>
<path d="M193.773 358.411H427.406C429.563 358.411 431.375 356.685 431.375 354.442C431.375 352.285 429.649 350.474 427.406 350.474H193.773C191.616 350.474 189.805 352.199 189.805 354.442C189.805 356.685 191.616 358.411 193.773 358.411Z" fill="#E2E2E1"/>
<path d="M407.822 64.2993V85.0054H213.358V64.2993C213.358 59.6405 217.154 55.7581 221.813 55.7581H399.281C404.026 55.8444 407.822 59.6405 407.822 64.2993Z" fill="#2E7EFF"/>
<path d="M310.59 343.14C306.19 343.14 302.652 339.603 302.652 335.203C302.652 330.803 306.19 327.266 310.59 327.266C314.99 327.266 318.527 330.803 318.527 335.203C318.613 339.603 314.99 343.14 310.59 343.14Z" fill="#E6F2EA"/>
<path d="M235.789 73.4445C233.977 73.4445 232.511 71.9778 232.511 70.166C232.511 68.3543 233.977 66.8876 235.789 66.8876C237.601 66.8876 239.068 68.3543 239.068 70.166C238.981 71.9778 237.515 73.4445 235.789 73.4445Z" fill="#E6F2EA"/>
<path d="M246.056 73.4445C244.244 73.4445 242.777 71.9778 242.777 70.166C242.777 68.3543 244.244 66.8876 246.056 66.8876C247.868 66.8876 249.334 68.3543 249.334 70.166C249.334 71.9778 247.868 73.4445 246.056 73.4445Z" fill="#E6F2EA"/>
<path d="M404.802 85.0054H216.377V318.724H404.802V85.0054Z" fill="#D2EBF7"/>
<path d="M250.104 163.343V135.649H187.728V163.343H250.104Z" fill="#2E7EFF"/>
<path d="M288.169 233.816V206.122H225.793V233.816H288.169Z" fill="#2E7EFF"/>
<path d="M269.18 198.623V170.929H206.803V198.623H269.18Z" fill="#2E7EFF"/>
<path d="M394.018 94.8407H225.782V126.331H394.018V94.8407Z" fill="#EDF6F4"/>
<path d="M388.928 99.327H366.583V121.672H388.928V99.327Z" fill="#D2E8F2"/>
<path d="M285.053 100.707H236.652V105.021H285.053V100.707Z" fill="#ACD8C8"/>
<path d="M285.053 108.386H236.652V112.7H285.053V108.386Z" fill="#ACD8C8"/>
<path d="M269.264 116.064H236.652V120.378H269.264V116.064Z" fill="#ACD8C8"/>
<path opacity="0.5" d="M425.767 229.343H288.159V293.963H425.767V229.343Z" fill="#96CEB8"/>
<path d="M355.885 251.689H301.876V257.124H355.885V251.689Z" fill="#E6F2EA"/>
<path d="M343.03 261.352H301.876V266.787H343.03V261.352Z" fill="#E6F2EA"/>
<path d="M329.657 271.101H301.876V276.536H329.657V271.101Z" fill="#E6F2EA"/>
<path d="M349.673 271.101H333.108V276.536H349.673V271.101Z" fill="#E6F2EA"/>
<path d="M339.406 280.763H301.876V286.199H339.406V280.763Z" fill="#E6F2EA"/>
<path d="M275.476 244.183H225.782V293.877H275.476V244.183Z" fill="#9FD2BA"/>
<path d="M261.618 280.176C267.683 274.112 267.683 264.279 261.618 258.215C255.553 252.15 245.721 252.15 239.656 258.215C233.592 264.279 233.592 274.112 239.656 280.176C245.721 286.241 255.553 286.241 261.618 280.176Z" fill="#7CC39E"/>
<path d="M262.449 269.203C262.449 273.085 260.551 276.536 257.617 278.693C256.754 279.297 255.805 279.901 254.77 280.246C254.339 280.418 253.821 280.591 253.39 280.677C253.131 280.763 252.786 280.763 252.527 280.85C251.923 280.936 251.319 281.022 250.715 281.022C249.507 281.022 248.299 280.85 247.178 280.505C242.347 279.038 238.896 274.552 238.896 269.203C238.896 267.391 239.327 265.579 240.103 264.026C241.052 262.128 242.433 260.489 244.158 259.367C244.59 259.108 245.021 258.85 245.452 258.591C246.401 258.073 247.437 257.728 248.558 257.555C249.249 257.383 250.025 257.383 250.715 257.383C255.719 257.383 260.033 260.489 261.672 264.889C262.103 266.269 262.449 267.65 262.449 269.203Z" fill="#EFF4F4"/>
<path d="M250.628 270.583C249.852 270.583 249.248 269.979 249.248 269.203V261.61C249.248 260.834 249.852 260.23 250.628 260.23C251.405 260.23 252.009 260.834 252.009 261.61V269.203C252.009 269.979 251.405 270.583 250.628 270.583Z" fill="#C1D6CF"/>
<path d="M250.628 270.583C250.197 270.583 249.766 270.324 249.507 269.979C249.075 269.375 249.334 268.512 249.938 268.081L253.82 265.579C254.424 265.148 255.287 265.407 255.718 266.01C256.15 266.614 255.891 267.477 255.287 267.909L251.405 270.41C251.146 270.497 250.887 270.583 250.628 270.583Z" fill="#C1D6CF"/>
<path d="M394.018 135.649H295.837V233.83H394.018V135.649Z" fill="#98D5E9"/>
<path d="M344.927 189.139C338.025 189.139 332.417 183.531 332.417 176.629V169.124C332.417 162.222 338.025 156.614 344.927 156.614C351.829 156.614 357.437 162.222 357.437 169.124V176.629C357.437 183.531 351.829 189.139 344.927 189.139Z" fill="#F8FCFA"/>
<path d="M344.927 182.755C333.107 182.755 323.013 189.657 318.268 199.665C315.507 205.532 319.735 212.261 326.205 212.261H363.735C370.206 212.261 374.433 205.532 371.672 199.665C366.927 189.657 356.747 182.755 344.927 182.755Z" fill="#F8FCFA"/>
<path d="M393.999 305.226V297.202L225.763 297.202V305.226L393.999 305.226Z" fill="#FFE1AB"/>
<path d="M406.615 132.457V103.209C408.685 103.209 410.411 104.935 410.411 107.006V128.747C410.411 130.817 408.685 132.457 406.615 132.457Z" fill="#2E7EFF"/>
<path d="M406.614 165.155V135.908C408.685 135.908 410.41 137.633 410.41 139.704V161.445C410.41 163.429 408.685 165.155 406.614 165.155Z" fill="#2E7EFF"/>
<path opacity="0.3" d="M325.688 85.0054L216.377 194.316V135.563L266.935 85.0054H325.688Z" fill="#F6FBFD"/>
<path opacity="0.3" d="M366.582 85.0054L216.377 235.21V205.877L337.249 85.0054H366.582Z" fill="#F6FBFD"/>
<path opacity="0.3" d="M255.374 253.242V278.434C255.374 279.469 254.684 280.418 253.735 280.677V350.387H221.899C217.24 350.387 213.444 346.591 213.444 341.933V201.908H247.868C251.147 201.908 253.735 204.583 253.735 207.775V250.999C254.684 251.344 255.374 252.206 255.374 253.242Z" fill="#385F82"/>
<path d="M231.131 190.261V382.999C231.131 386.278 228.456 388.866 225.264 388.866H124.063C120.871 388.866 118.197 386.278 118.197 382.999V190.261C118.197 186.982 120.871 184.394 124.063 184.394H225.178C228.456 184.394 231.131 186.982 231.131 190.261Z" fill="#2E7EFF"/>
<path d="M231.131 190.261V204.669H118.197V190.261C118.197 186.982 120.871 184.394 124.063 184.394H225.264C228.456 184.394 231.131 187.069 231.131 190.261Z" fill="#2E7EFF"/>
<path d="M174.621 383.862C171.601 383.862 169.099 381.36 169.099 378.34C169.099 375.321 171.601 372.819 174.621 372.819C177.64 372.819 180.142 375.321 180.142 378.34C180.142 381.36 177.727 383.862 174.621 383.862Z" fill="#E6F2EA"/>
<path d="M154.173 196.559C152.965 196.559 151.93 195.524 151.93 194.316C151.93 193.108 152.965 192.073 154.173 192.073C155.381 192.073 156.416 193.108 156.416 194.316C156.416 195.61 155.467 196.559 154.173 196.559Z" fill="#E6F2EA"/>
<path d="M186.009 195.179H163.664C163.232 195.179 162.801 194.834 162.801 194.316C162.801 193.798 163.146 193.453 163.664 193.453H186.009C186.44 193.453 186.872 193.798 186.872 194.316C186.872 194.834 186.44 195.179 186.009 195.179Z" fill="#E6F2EA"/>
<path d="M228.974 204.669H120.268V366.952H228.974V204.669Z" fill="#D2EBF7"/>
<path d="M148.738 290.944H128.981V297.156H148.738V290.944Z" fill="#EDF6F4"/>
<path d="M199.036 290.944H179.279V297.156H199.036V290.944Z" fill="#EDF6F4"/>
<path d="M173.844 290.944H154.087V297.156H173.844V290.944Z" fill="#EDF6F4"/>
<path d="M220.432 302.246H140.887V324.073H220.432V302.246Z" fill="#EDF6F4"/>
<path d="M216.895 305.352H201.366V320.881H216.895V305.352Z" fill="#D5EAE4"/>
<path d="M170.393 306.301H136.746V309.32H170.393V306.301Z" fill="#ACD8C8"/>
<path d="M170.393 311.65H136.746V314.67H170.393V311.65Z" fill="#ACD8C8"/>
<path d="M159.35 316.999H136.746V320.019H159.35V316.999Z" fill="#ACD8C8"/>
<path d="M187.303 329.509H129.153V356.772H187.303V329.509Z" fill="#EDF6F4"/>
<path d="M166.424 333.65H136.746V336.67H166.424V333.65Z" fill="#FFE1AB"/>
<path d="M159.35 338.913H136.746V341.932H159.35V338.913Z" fill="#FFE1AB"/>
<path d="M152.016 344.262H136.746V347.281H152.016V344.262Z" fill="#FFE1AB"/>
<path d="M162.973 344.262H153.914V347.281H162.973V344.262Z" fill="#ACD8C8"/>
<path d="M157.365 349.611H136.746V352.63H157.365V349.611Z" fill="#FFE1AB"/>
<path opacity="0.5" d="M199.122 214.763H113.538V284.56H199.122V214.763Z" fill="#FFE1AB"/>
<path d="M164.181 271.791C176.284 271.791 186.095 261.98 186.095 249.877C186.095 237.774 176.284 227.963 164.181 227.963C152.078 227.963 142.267 237.774 142.267 249.877C142.267 261.98 152.078 271.791 164.181 271.791Z" fill="#FCC450"/>
<path d="M180.746 249.877C180.746 255.399 178.071 260.23 174.016 263.25C172.809 264.112 171.428 264.889 169.961 265.406C169.358 265.665 168.667 265.838 167.977 266.01C167.546 266.097 167.114 266.183 166.769 266.269C165.907 266.442 165.044 266.442 164.181 266.442C162.456 266.442 160.816 266.183 159.263 265.665C152.534 263.595 147.616 257.21 147.616 249.791C147.616 247.202 148.22 244.787 149.255 242.544C150.55 239.869 152.534 237.54 155.036 235.9C155.64 235.469 156.244 235.124 156.848 234.865C158.228 234.175 159.695 233.657 161.161 233.398C162.197 233.226 163.146 233.14 164.181 233.14C171.256 233.14 177.295 237.54 179.624 243.751C180.401 245.736 180.746 247.806 180.746 249.877Z" fill="#EFF4F4"/>
<path d="M164.181 251.861C163.145 251.861 162.283 250.999 162.283 249.963V239.351C162.283 238.316 163.145 237.453 164.181 237.453C165.216 237.453 166.079 238.316 166.079 239.351V249.963C166.079 250.999 165.216 251.861 164.181 251.861Z" fill="#C1D6CF"/>
<path d="M164.181 251.861C163.577 251.861 162.887 251.516 162.542 250.998C161.938 250.136 162.283 248.928 163.146 248.324L168.667 244.873C169.53 244.269 170.738 244.614 171.342 245.477C171.946 246.34 171.601 247.547 170.738 248.151L165.216 251.602C164.871 251.775 164.526 251.861 164.181 251.861Z" fill="#C1D6CF"/>
<path opacity="0.3" d="M196.189 204.669L120.267 280.505V239.783L155.381 204.669H196.189Z" fill="#F6FBFD"/>
<path opacity="0.3" d="M224.574 204.669L120.267 308.975V288.528L204.126 204.669H224.574Z" fill="#F6FBFD"/>
<g opacity="0.7">
<path opacity="0.7" d="M235.272 329.509H193.169V371.611H235.272V329.509Z" fill="#9FD2BA"/>
<path opacity="0.7" d="M214.134 352.458C211.201 352.458 208.785 350.042 208.785 347.109V343.917C208.785 340.983 211.201 338.568 214.134 338.568C217.068 338.568 219.483 340.983 219.483 343.917V347.109C219.57 350.042 217.154 352.458 214.134 352.458Z" fill="#F8FCFA"/>
<path opacity="0.7" d="M214.134 349.697C209.044 349.697 204.73 352.63 202.659 356.944C201.451 359.446 203.263 362.38 206.024 362.38H222.071C224.832 362.38 226.644 359.446 225.436 356.944C223.624 352.63 219.224 349.697 214.134 349.697Z" fill="#F8FCFA"/>
</g>
<path d="M219.311 214.763H206.801V297.156H219.311V214.763Z" fill="#9FD2BA"/>
<path d="M230.268 263.422V233.312C231.648 233.312 232.77 234.434 232.77 235.814V261.006C232.77 262.301 231.648 263.422 230.268 263.422Z" fill="#5BB98E"/>
<path opacity="0.3" d="M154.691 184.394L144.338 214.763L120.526 284.56L118.197 291.462V284.56H113.624V214.763H118.197V190.261C118.197 186.982 120.871 184.394 124.063 184.394H154.691V184.394Z" fill="#385F82"/>
<path d="M61.8588 396.803H247.005C249.162 396.803 250.974 395.078 250.974 392.835C250.974 390.678 249.248 388.866 247.005 388.866H61.8588C59.7019 388.866 57.8901 390.591 57.8901 392.835C57.9764 395.078 59.7019 396.803 61.8588 396.803Z" fill="#E2E2E1"/>
</svg>
