<svg width="38" height="38" viewBox="0 0 38 38" fill="none" xmlns="http://www.w3.org/2000/svg">
<path d="M35.9026 0H2.09739C1.54113 0 1.00765 0.220974 0.614311 0.614311C0.220974 1.00765 0 1.54113 0 2.09739V35.9031C0.000139952 36.4593 0.221176 36.9927 0.614498 37.3859C1.00782 37.7791 1.54122 38 2.09739 38H20.2968V23.2845H15.3446V17.5497H20.2968V13.3201C20.2968 8.41172 23.2945 5.73958 27.673 5.73958C29.7704 5.73958 31.5727 5.89528 32.0984 5.96547V11.0949L29.0616 11.0965C26.6802 11.0965 26.2195 12.2281 26.2195 13.8885V17.5502H31.8984L31.1589 23.285H26.2195V38H35.9031C36.4593 37.9999 36.9927 37.7788 37.3859 37.3855C37.7791 36.9922 38 36.4588 38 35.9026V2.09739C38 1.54113 37.779 1.00765 37.3857 0.614311C36.9924 0.220974 36.4589 0 35.9026 0V0Z" fill="white"/>
</svg>
