<svg width="39" height="38" viewBox="0 0 39 38" fill="none" xmlns="http://www.w3.org/2000/svg">
<path d="M6.25177 19.6566C7.17908 20.3844 8.23938 20.748 9.43216 20.748C10.939 20.6926 12.1945 20.1511 13.1994 19.1246C13.6839 18.3978 13.9953 17.6515 14.1336 16.8868C14.2165 16.1231 14.2582 15.4787 14.2582 14.9562C14.2582 12.6994 13.6808 10.4236 12.5265 8.12883C11.985 7.02894 11.2725 6.1333 10.3885 5.44244C9.48599 4.79011 8.44891 4.44442 7.27619 4.40747C5.72505 4.44442 4.43463 5.07036 3.40705 6.28266C2.53938 7.55144 2.12455 8.96905 2.16255 10.535C2.16255 12.606 2.76791 14.7614 3.98021 16.9992C4.55285 18.0274 5.32516 18.9309 6.25177 19.6566V19.6566Z" fill="white"/>
<path d="M11.2899 29.9602C10.8627 29.9195 10.4338 29.9007 10.0047 29.9037C9.71286 29.8668 8.96553 29.9037 7.76272 30.0161C6.53189 30.1936 5.31628 30.464 4.12633 30.8252C3.83447 30.9376 3.42439 31.1044 2.89608 31.3282C2.36725 31.5704 1.82944 31.9146 1.28319 32.3621C0.926802 32.6779 0.611215 33.0369 0.34375 33.4309V34.9873C0.344309 35.6888 0.623219 36.3615 1.11926 36.8577C1.6153 37.3538 2.28793 37.6329 2.9895 37.6336H17.4116C17.4121 37.5977 17.4142 37.5634 17.4142 37.5285C17.4142 36.0761 16.9397 34.8105 15.9924 33.7301C14.9896 32.7062 13.4226 31.4501 11.2899 29.9602V29.9602Z" fill="white"/>
<path d="M9.72817 28.3433C9.31166 27.7953 8.94247 27.2128 8.62458 26.6022C8.24775 26.0042 8.05986 25.2828 8.05986 24.4404C8.05986 23.9353 8.13111 23.5136 8.27467 23.1764C8.39042 22.8487 8.50706 22.5213 8.62458 22.1942C8.01415 22.267 7.40003 22.3045 6.78528 22.3066C4.05719 22.2739 1.91019 21.5007 0.34375 19.9907V30.1969C1.72905 29.5603 3.19104 29.1059 4.69317 28.8453C6.71403 28.5476 8.39236 28.3803 9.72817 28.3433V28.3433Z" fill="white"/>
<path d="M35.6975 0H2.9895C2.28784 0.000419597 1.61505 0.279375 1.11895 0.775572C0.622851 1.27177 0.34403 1.94462 0.34375 2.64628V6.19453C0.510528 6.01719 0.683111 5.84092 0.863611 5.66675C2.49075 4.32672 4.18228 3.45272 5.93661 3.04211C7.673 2.6885 9.30119 2.51222 10.8201 2.51222H22.2687L18.7331 4.57583H15.2028C15.5622 4.79856 15.967 5.12525 16.4162 5.55328C16.8474 5.99978 17.2701 6.54919 17.6834 7.20047C18.0787 7.81481 18.4291 8.5405 18.7347 9.37861C18.9859 10.2157 19.1121 11.1942 19.1121 12.3104C19.0783 14.3587 18.626 15.9964 17.7562 17.2251C17.3425 17.8046 16.8895 18.3549 16.4003 18.8723C15.8484 19.3961 15.2855 19.9081 14.712 20.4081C14.3588 20.7771 14.0419 21.1791 13.7657 21.6088C13.4247 22.0738 13.2537 22.6137 13.2537 23.228C13.2537 23.8239 13.4289 24.3163 13.7783 24.7074C14.0483 25.0497 14.3375 25.3763 14.6444 25.6859L16.5866 27.2777C17.769 28.2387 18.8346 29.335 19.7618 30.5441C20.6194 31.7543 21.0654 33.3366 21.1002 35.2909C21.1002 36.0989 20.9957 36.8795 20.7878 37.6337H35.6975C36.3991 37.6332 37.0719 37.3542 37.5681 36.858C38.0642 36.3619 38.3432 35.6891 38.3438 34.9874V2.64575C38.3432 1.94413 38.0642 1.27142 37.568 0.775353C37.0719 0.279285 36.3991 0.000419321 35.6975 0V0ZM37.7796 11.6729H31.7724V17.6806H28.8622V11.6729H22.8551V8.7627H28.8622V2.75606H31.7724V8.7627H37.7796V11.6729Z" fill="white"/>
</svg>
