<svg width="224" height="283" viewBox="0 0 224 283" fill="none" xmlns="http://www.w3.org/2000/svg">
<path d="M112 283C46.368 264.632 0 202.136 0 129.941V32.12C39.4935 32.0681 78.2219 21.2241 112 0.760002C145.777 21.2262 184.506 32.0704 224 32.12V129.941C224 202.36 177.52 264.654 112 283Z" fill="#7AA8D7"/>
<path d="M224 123.221V129.941C224 201.621 178.035 264.498 112 283C45.9648 264.498 0 201.71 0 129.941V123.221C0 194.901 45.9648 257.778 112 276.28C178.035 257.778 224 194.99 224 123.221Z" fill="#5B8DC9"/>
<path d="M112 264.296C56.3583 246.376 17.9199 191.81 17.9199 129.896V49.256C50.8886 46.6918 82.9459 37.2043 112 21.4128C141.049 37.2306 173.106 46.7483 206.08 49.3456V129.986C206.08 191.81 167.642 246.309 112 264.296Z" fill="#DDE1E8"/>
<path d="M172.48 112.76H51.52V206.84H172.48V112.76Z" fill="#C7CDD8"/>
<path d="M154.56 97.08V112.76H141.12C141.12 97.3264 142.867 86.776 132.586 76.4944C114.374 58.2832 82.8799 71.1184 82.8799 97.08V112.76H69.4399V97.08C69.4399 85.7924 73.9239 74.9671 81.9055 66.9855C89.887 59.004 100.712 54.52 112 54.52C123.288 54.52 134.113 59.004 142.094 66.9855C150.076 74.9671 154.56 85.7924 154.56 97.08V97.08Z" fill="#C7CDD8"/>
<path d="M206.08 123.221V129.941C206.08 191.81 167.642 246.421 112 264.341C56.3583 246.421 17.9199 191.854 17.9199 129.941V123.221C17.9199 185.09 56.3583 239.701 112 257.621C167.642 239.589 206.08 185.09 206.08 123.221Z" fill="#C7CDD8"/>
<path d="M206.08 49.3456V56.0656C173.106 53.4683 141.049 43.9506 112 28.1328C82.9529 43.9555 50.8952 53.4736 17.9199 56.0656V49.3456C50.8952 46.7536 82.9529 37.2355 112 21.4128C141.049 37.2306 173.106 46.7483 206.08 49.3456V49.3456Z" fill="#C7CDD8"/>
<path d="M172.48 103.8H51.52V197.88H172.48V103.8Z" fill="#949AAF"/>
<path d="M172.48 188.92H51.52V197.88H172.48V188.92Z" fill="#8288A1"/>
<path d="M154.56 88.12V103.8H141.12C141.12 88.3664 142.867 77.816 132.586 67.5344C114.374 49.3232 82.8799 62.1584 82.8799 88.12V103.8H69.4399V88.12C69.4399 76.8324 73.9239 66.0071 81.9055 58.0255C89.887 50.044 100.712 45.56 112 45.56C123.288 45.56 134.113 50.044 142.094 58.0255C150.076 66.0071 154.56 76.8324 154.56 88.12V88.12Z" fill="#949AAF"/>
<path d="M133.594 176.555C129.458 180.034 124.543 182.463 119.268 183.637C113.992 184.812 108.512 184.696 103.29 183.3C98.0692 181.904 93.2618 179.27 89.276 175.62C85.2902 171.97 82.2436 167.412 80.3948 162.334C78.546 157.256 77.9495 151.806 78.656 146.448C79.3624 141.09 81.3509 135.981 84.4528 131.555C87.5547 127.13 91.6784 123.518 96.474 121.025C101.27 118.533 106.596 117.235 112 117.24C143.36 117.24 157.472 156.574 133.594 176.555Z" fill="#FBCC88"/>
<path d="M133.594 176.555C110.432 196.155 74.5919 176.869 78.7583 146.315C79.8649 154.357 83.8455 161.727 89.9645 167.062C96.0834 172.396 103.927 175.335 112.045 175.335C120.163 175.335 128.006 172.396 134.125 167.062C140.244 161.727 144.225 154.357 145.331 146.315C146.105 151.938 145.434 157.665 143.38 162.956C141.326 168.247 137.958 172.927 133.594 176.555V176.555Z" fill="#F6B756"/>
<path d="M133.549 176.578C127.518 181.659 119.886 184.446 112 184.446C104.114 184.446 96.4816 181.659 90.4509 176.578C92.9597 165.893 101.069 155.32 112 155.32C122.931 155.32 131.04 165.893 133.549 176.578Z" fill="#7AA8D7"/>
<path d="M112 155.32C118.186 155.32 123.2 150.306 123.2 144.12C123.2 137.934 118.186 132.92 112 132.92C105.814 132.92 100.8 137.934 100.8 144.12C100.8 150.306 105.814 155.32 112 155.32Z" fill="#7AA8D7"/>
<path d="M82.8799 94.84H69.4399V103.8H82.8799V94.84Z" fill="#8288A1"/>
<path d="M154.56 94.84H141.12V103.8H154.56V94.84Z" fill="#8288A1"/>
<path d="M133.549 176.578C127.518 181.659 119.886 184.445 112 184.445C104.114 184.445 96.4816 181.659 90.4509 176.578C91.0198 174.139 91.8614 171.772 92.9597 169.522C98.5499 173.404 105.193 175.485 112 175.485C118.806 175.485 125.45 173.404 131.04 169.522C132.138 171.772 132.98 174.139 133.549 176.578Z" fill="#5B8DC9"/>
</svg>
