<svg width="383" height="302" viewBox="0 0 383 302" fill="none" xmlns="http://www.w3.org/2000/svg">
<g filter="url(#filter0_d)">
<path d="M267 283C201.368 264.632 155 202.136 155 129.941V32.12C194.494 32.0681 233.222 21.2241 267 0.760002C300.777 21.2262 339.506 32.0704 379 32.12V129.941C379 202.36 332.52 264.654 267 283Z" fill="#7AA8D7"/>
<path d="M379 123.221V129.941C379 201.621 333.035 264.498 267 283C200.965 264.498 155 201.71 155 129.941V123.221C155 194.901 200.965 257.778 267 276.28C333.035 257.778 379 194.99 379 123.221Z" fill="#5B8DC9"/>
<path d="M267 264.296C211.358 246.376 172.92 191.81 172.92 129.896V49.256C205.889 46.6918 237.946 37.2043 267 21.4128C296.049 37.2306 328.106 46.7483 361.08 49.3456V129.986C361.08 191.81 322.642 246.309 267 264.296Z" fill="#DDE1E8"/>
<path d="M327.48 112.76H206.52V206.84H327.48V112.76Z" fill="#C7CDD8"/>
<path d="M309.56 97.08V112.76H296.12C296.12 97.3264 297.867 86.776 287.586 76.4944C269.374 58.2832 237.88 71.1184 237.88 97.08V112.76H224.44V97.08C224.44 85.7924 228.924 74.9671 236.905 66.9855C244.887 59.004 255.712 54.52 267 54.52C278.288 54.52 289.113 59.004 297.094 66.9855C305.076 74.9671 309.56 85.7924 309.56 97.08V97.08Z" fill="#C7CDD8"/>
<path d="M361.08 123.221V129.941C361.08 191.81 322.642 246.421 267 264.341C211.358 246.421 172.92 191.854 172.92 129.941V123.221C172.92 185.09 211.358 239.701 267 257.621C322.642 239.589 361.08 185.09 361.08 123.221Z" fill="#C7CDD8"/>
<path d="M361.08 49.3456V56.0656C328.106 53.4683 296.049 43.9506 267 28.1328C237.953 43.9555 205.895 53.4736 172.92 56.0656V49.3456C205.895 46.7536 237.953 37.2355 267 21.4128C296.049 37.2306 328.106 46.7483 361.08 49.3456V49.3456Z" fill="#C7CDD8"/>
<path d="M327.48 103.8H206.52V197.88H327.48V103.8Z" fill="#949AAF"/>
<path d="M327.48 188.92H206.52V197.88H327.48V188.92Z" fill="#8288A1"/>
<path d="M309.56 88.12V103.8H296.12C296.12 88.3664 297.867 77.816 287.586 67.5344C269.374 49.3232 237.88 62.1584 237.88 88.12V103.8H224.44V88.12C224.44 76.8324 228.924 66.0071 236.905 58.0255C244.887 50.044 255.712 45.56 267 45.56C278.288 45.56 289.113 50.044 297.094 58.0255C305.076 66.0071 309.56 76.8324 309.56 88.12V88.12Z" fill="#949AAF"/>
<path d="M288.594 176.555C284.458 180.034 279.543 182.463 274.268 183.637C268.992 184.812 263.512 184.696 258.29 183.3C253.069 181.904 248.262 179.27 244.276 175.62C240.29 171.97 237.244 167.412 235.395 162.334C233.546 157.256 232.95 151.806 233.656 146.448C234.362 141.09 236.351 135.981 239.453 131.555C242.555 127.13 246.678 123.518 251.474 121.025C256.27 118.533 261.596 117.235 267 117.24C298.36 117.24 312.472 156.574 288.594 176.555Z" fill="#FBCC88"/>
<path d="M288.594 176.555C265.432 196.155 229.592 176.869 233.758 146.315C234.865 154.357 238.846 161.727 244.964 167.062C251.083 172.396 258.927 175.335 267.045 175.335C275.163 175.335 283.006 172.396 289.125 167.062C295.244 161.727 299.225 154.357 300.331 146.315C301.105 151.938 300.434 157.665 298.38 162.956C296.326 168.247 292.958 172.927 288.594 176.555V176.555Z" fill="#F6B756"/>
<path d="M288.549 176.578C282.518 181.659 274.886 184.446 267 184.446C259.114 184.446 251.482 181.659 245.451 176.578C247.96 165.893 256.069 155.32 267 155.32C277.931 155.32 286.04 165.893 288.549 176.578Z" fill="#7AA8D7"/>
<path d="M267 155.32C273.186 155.32 278.2 150.306 278.2 144.12C278.2 137.934 273.186 132.92 267 132.92C260.814 132.92 255.8 137.934 255.8 144.12C255.8 150.306 260.814 155.32 267 155.32Z" fill="#7AA8D7"/>
<path d="M237.88 94.84H224.44V103.8H237.88V94.84Z" fill="#8288A1"/>
<path d="M309.56 94.84H296.12V103.8H309.56V94.84Z" fill="#8288A1"/>
<path d="M288.549 176.578C282.518 181.659 274.886 184.445 267 184.445C259.114 184.445 251.482 181.659 245.451 176.578C246.02 174.139 246.861 171.772 247.96 169.522C253.55 173.404 260.193 175.485 267 175.485C273.806 175.485 280.45 173.404 286.04 169.522C287.138 171.772 287.98 174.139 288.549 176.578Z" fill="#5B8DC9"/>
<path d="M156.579 194.952H57.5312" stroke="#47566A" stroke-width="2.04" stroke-linecap="round" stroke-linejoin="round"/>
<path d="M19.436 179.714V153.81H190.103V283.333C190.103 286.162 188.979 288.875 186.979 290.876C184.978 292.876 182.265 294 179.436 294C176.607 294 173.894 292.876 171.894 290.876C169.893 288.875 168.769 286.162 168.769 283.333V194.952H57.5313L46.8646 179.714H19.436Z" fill="#9B756D"/>
<path d="M168.769 194.952H57.5313L46.8646 179.714H19.436V169.048H46.8646L57.5313 184.286H168.769V194.952Z" fill="#8A6762"/>
<path d="M190.103 272.667V283.333C190.103 286.162 188.979 288.875 186.978 290.876C184.978 292.876 182.265 294 179.436 294C176.607 294 173.894 292.876 171.893 290.876C169.893 288.875 168.769 286.162 168.769 283.333V272.667C168.769 275.496 169.893 278.209 171.893 280.209C173.894 282.21 176.607 283.333 179.436 283.333C182.265 283.333 184.978 282.21 186.978 280.209C188.979 278.209 190.103 275.496 190.103 272.667V272.667Z" fill="#8A6762"/>
<path d="M179.116 294H14.5751C11.823 294 9.18348 292.907 7.23739 290.961C5.2913 289.015 4.198 286.375 4.198 283.623V179.714H46.8647L57.5313 194.952H168.769V283.653C168.773 286.396 169.865 289.026 171.804 290.965C173.744 292.905 176.373 293.996 179.116 294V294Z" fill="#D1A788"/>
<path d="M34.6741 179.714V118.762C34.6741 114.316 36.4401 110.053 39.5835 106.909C42.727 103.766 46.9904 102 51.436 102H173.341C168.895 102 164.632 103.766 161.488 106.909C158.345 110.053 156.579 114.316 156.579 118.762V194.952H57.5312L46.8645 179.714H34.6741Z" fill="#DDE1E8"/>
<path d="M156.579 188.857V194.952H57.5312L46.8645 179.714H34.6741V173.619H50.0341L60.7007 188.857H156.579Z" fill="#C7CDD8"/>
<path d="M190.103 118.762V132.476H156.579V118.762C156.579 114.316 158.345 110.053 161.488 106.909C164.632 103.766 168.895 102 173.341 102C177.786 102 182.05 103.766 185.193 106.909C188.337 110.053 190.103 114.316 190.103 118.762V118.762Z" fill="#949AAF"/>
<path d="M190.103 126.381H156.579V132.476H190.103V126.381Z" fill="#8288A1"/>
<path d="M86.4837 278.762C105.84 278.762 121.531 263.071 121.531 243.714C121.531 224.358 105.84 208.667 86.4837 208.667C67.1274 208.667 51.436 224.358 51.436 243.714C51.436 263.071 67.1274 278.762 86.4837 278.762Z" fill="#8CDD79"/>
<path d="M86.4836 278.762C81.5602 278.761 76.6921 277.723 72.1967 275.715C67.7013 273.707 63.6793 270.775 60.3928 267.109C57.1064 263.443 54.6292 259.126 53.1227 254.438C51.6162 249.751 51.1142 244.799 51.6493 239.905C52.5997 248.479 56.6789 256.401 63.1061 262.156C69.5333 267.91 77.8569 271.091 86.4836 271.091C95.1103 271.091 103.434 267.91 109.861 262.156C116.288 256.401 120.368 248.479 121.318 239.905C121.853 244.799 121.351 249.751 119.844 254.438C118.338 259.126 115.861 263.443 112.574 267.109C109.288 270.775 105.266 273.707 100.77 275.715C96.2751 277.723 91.407 278.761 86.4836 278.762V278.762Z" fill="#7ECE67"/>
<path d="M80.3883 257.429C79.4893 257.429 80.2664 257.947 67.1007 244.781C66.8097 244.49 66.6462 244.095 66.6462 243.684C66.6462 243.272 66.8097 242.878 67.1007 242.587C67.3917 242.296 67.7863 242.132 68.1978 242.132C68.6093 242.132 69.004 242.296 69.295 242.587L80.3883 253.71L103.672 230.427C103.963 230.136 104.358 229.972 104.769 229.972C105.181 229.972 105.575 230.136 105.866 230.427C106.157 230.718 106.321 231.112 106.321 231.524C106.321 231.935 106.157 232.33 105.866 232.621C79.1845 259.303 81.3026 257.429 80.3883 257.429Z" fill="white"/>
<path d="M136.769 127.905H54.4835C54.0794 127.905 53.6918 127.744 53.406 127.458C53.1203 127.173 52.9597 126.785 52.9597 126.381C52.9597 125.977 53.1203 125.589 53.406 125.303C53.6918 125.018 54.0794 124.857 54.4835 124.857H136.769C137.173 124.857 137.561 125.018 137.847 125.303C138.133 125.589 138.293 125.977 138.293 126.381C138.293 126.785 138.133 127.173 137.847 127.458C137.561 127.744 137.173 127.905 136.769 127.905Z" fill="#ADB3C4"/>
<path d="M136.769 146.19H54.4835C54.0794 146.19 53.6918 146.03 53.406 145.744C53.1203 145.458 52.9597 145.071 52.9597 144.667C52.9597 144.263 53.1203 143.875 53.406 143.589C53.6918 143.303 54.0794 143.143 54.4835 143.143H136.769C137.173 143.143 137.561 143.303 137.847 143.589C138.133 143.875 138.293 144.263 138.293 144.667C138.293 145.071 138.133 145.458 137.847 145.744C137.561 146.03 137.173 146.19 136.769 146.19Z" fill="#ADB3C4"/>
<path d="M136.769 164.476H54.4835C54.0794 164.476 53.6918 164.316 53.406 164.03C53.1203 163.744 52.9597 163.357 52.9597 162.952C52.9597 162.548 53.1203 162.161 53.406 161.875C53.6918 161.589 54.0794 161.429 54.4835 161.429H136.769C137.173 161.429 137.561 161.589 137.847 161.875C138.133 162.161 138.293 162.548 138.293 162.952C138.293 163.357 138.133 163.744 137.847 164.03C137.561 164.316 137.173 164.476 136.769 164.476Z" fill="#ADB3C4"/>
<path d="M179.116 294H14.5751C11.8229 294 9.18343 292.907 7.23734 290.961C5.29125 289.015 4.19795 286.375 4.19795 283.623C4.19795 283.166 -8.4649 283.333 168.769 283.333C168.727 284.719 168.962 286.099 169.463 287.391C169.964 288.684 170.719 289.862 171.684 290.857C172.649 291.852 173.805 292.643 175.081 293.183C176.358 293.723 177.73 294.001 179.116 294V294Z" fill="#CBA07A"/>
</g>
<defs>
<filter id="filter0_d" x="0" y="0.760002" width="383" height="301.24" filterUnits="userSpaceOnUse" color-interpolation-filters="sRGB">
<feFlood flood-opacity="0" result="BackgroundImageFix"/>
<feColorMatrix in="SourceAlpha" type="matrix" values="0 0 0 0 0 0 0 0 0 0 0 0 0 0 0 0 0 0 127 0" result="hardAlpha"/>
<feOffset dy="4"/>
<feGaussianBlur stdDeviation="2"/>
<feComposite in2="hardAlpha" operator="out"/>
<feColorMatrix type="matrix" values="0 0 0 0 0 0 0 0 0 0 0 0 0 0 0 0 0 0 0.25 0"/>
<feBlend mode="normal" in2="BackgroundImageFix" result="effect1_dropShadow"/>
<feBlend mode="normal" in="SourceGraphic" in2="effect1_dropShadow" result="shape"/>
</filter>
</defs>
</svg>
