<svg width="38" height="38" viewBox="0 0 38 38" fill="none" xmlns="http://www.w3.org/2000/svg">
<path d="M33.9286 0H4.07143C1.82366 0 0 1.82366 0 4.07143V33.9286C0 36.1763 1.82366 38 4.07143 38H33.9286C36.1763 38 38 36.1763 38 33.9286V4.07143C38 1.82366 36.1763 0 33.9286 0ZM29.7808 13.4696C29.7978 13.7071 29.7978 13.9531 29.7978 14.1906C29.7978 21.5446 24.1996 30.0183 13.9701 30.0183C10.8147 30.0183 7.88839 29.1022 5.42857 27.5246C5.87812 27.5754 6.31071 27.5924 6.76875 27.5924C9.37277 27.5924 11.7647 26.7103 13.6732 25.2174C11.2304 25.1665 9.17768 23.5634 8.47366 21.358C9.33036 21.4853 10.1022 21.4853 10.9844 21.2562C8.43973 20.7388 6.53125 18.4996 6.53125 15.7937V15.7259C7.2692 16.1415 8.13437 16.396 9.04196 16.4299C8.27893 15.9224 7.65342 15.2338 7.22125 14.4257C6.78907 13.6176 6.56368 12.7151 6.56518 11.7987C6.56518 10.7638 6.83661 9.81384 7.32009 8.99107C10.0598 12.367 14.1737 14.5723 18.7879 14.8098C17.9991 11.0353 20.8237 7.97321 24.2165 7.97321C25.8196 7.97321 27.2616 8.6433 28.2795 9.72902C29.5348 9.49152 30.7393 9.025 31.808 8.38884C31.3924 9.67812 30.5187 10.7638 29.3652 11.4509C30.4848 11.3321 31.5705 11.0183 32.5714 10.5857C31.8165 11.6969 30.8665 12.6808 29.7808 13.4696Z" fill="white"/>
</svg>
