<svg width="416" height="300" viewBox="0 0 416 300" fill="none" xmlns="http://www.w3.org/2000/svg">
<path d="M340.849 21.9776H168.146C164.819 21.9776 162.121 24.6748 162.121 28.0021V246.893C162.121 250.221 164.819 252.918 168.146 252.918H340.849C344.176 252.918 346.874 250.221 346.874 246.893V28.0021C346.874 24.6748 344.176 21.9776 340.849 21.9776Z" fill="#9B756D"/>
<path d="M346.874 240.869V246.893C346.874 248.491 346.239 250.024 345.109 251.153C343.979 252.283 342.447 252.918 340.849 252.918H168.146C166.548 252.918 165.016 252.283 163.886 251.153C162.756 250.024 162.121 248.491 162.121 246.893V240.869C162.121 242.467 162.756 243.999 163.886 245.129C165.016 246.259 166.548 246.893 168.146 246.893H340.849C342.447 246.893 343.979 246.259 345.109 245.129C346.239 243.999 346.874 242.467 346.874 240.869V240.869Z" fill="#8A6762"/>
<path d="M328.8 36.0348H180.195V236.852H328.8V36.0348Z" fill="#DDE1E8"/>
<path d="M328.8 226.812V236.852H180.195V226.812H328.8Z" fill="#C7CDD8"/>
<path d="M368.963 210.746C394.472 210.746 415.152 190.067 415.152 164.558C415.152 139.049 394.472 118.37 368.963 118.37C343.454 118.37 322.775 139.049 322.775 164.558C322.775 190.067 343.454 210.746 368.963 210.746Z" fill="#8CDD79"/>
<path d="M368.964 210.746C362.56 210.745 356.227 209.413 350.365 206.834C344.504 204.255 339.243 200.485 334.917 195.764C330.591 191.043 327.293 185.474 325.234 179.41C323.175 173.347 322.399 166.921 322.956 160.542C323.976 172.04 329.265 182.739 337.78 190.532C346.296 198.326 357.42 202.648 368.964 202.648C380.507 202.648 391.632 198.326 400.147 190.532C408.662 182.739 413.951 172.04 414.971 160.542C415.528 166.921 414.752 173.347 412.693 179.41C410.634 185.474 407.336 191.043 403.01 195.764C398.684 200.485 393.423 204.255 387.562 206.834C381.701 209.413 375.367 210.745 368.964 210.746Z" fill="#7ECE67"/>
<path d="M346.873 205.103V213.136C339.318 209.01 333.061 202.863 328.8 195.384V187.351C333.059 194.832 339.317 200.979 346.873 205.103Z" fill="#8A6762"/>
<path d="M328.8 187.371V195.404C324.163 187.265 322.124 177.904 322.956 168.575C323.526 175.188 325.519 181.6 328.8 187.371V187.371Z" fill="#C7CDD8"/>
<path d="M360.931 182.632C359.746 182.632 360.77 183.314 343.42 165.964C343.036 165.58 342.821 165.06 342.821 164.518C342.821 163.976 343.036 163.456 343.42 163.072C343.803 162.689 344.323 162.473 344.866 162.473C345.408 162.473 345.928 162.689 346.311 163.072L360.931 177.732L391.616 147.047C391.999 146.663 392.52 146.448 393.062 146.448C393.604 146.448 394.124 146.663 394.508 147.047C394.891 147.43 395.107 147.95 395.107 148.493C395.107 149.035 394.891 149.555 394.508 149.939C359.345 185.102 362.136 182.632 360.931 182.632Z" fill="white"/>
<path d="M312.735 68.1656H196.26V94.2719H312.735V68.1656Z" fill="#9DD5DF"/>
<path d="M256.505 166.566H196.26C195.728 166.566 195.217 166.355 194.84 165.978C194.464 165.601 194.252 165.091 194.252 164.558C194.252 164.026 194.464 163.515 194.84 163.138C195.217 162.762 195.728 162.55 196.26 162.55H256.505C257.038 162.55 257.549 162.762 257.925 163.138C258.302 163.515 258.514 164.026 258.514 164.558C258.514 165.091 258.302 165.601 257.925 165.978C257.549 166.355 257.038 166.566 256.505 166.566Z" fill="#ADB3C4"/>
<path d="M312.735 182.632H208.309C207.777 182.632 207.266 182.42 206.889 182.044C206.513 181.667 206.301 181.156 206.301 180.624C206.301 180.091 206.513 179.58 206.889 179.204C207.266 178.827 207.777 178.615 208.309 178.615H312.735C313.267 178.615 313.778 178.827 314.155 179.204C314.531 179.58 314.743 180.091 314.743 180.624C314.743 181.156 314.531 181.667 314.155 182.044C313.778 182.42 313.267 182.632 312.735 182.632Z" fill="#ADB3C4"/>
<path d="M312.734 198.697H196.26C195.728 198.697 195.217 198.486 194.84 198.109C194.464 197.732 194.252 197.222 194.252 196.689C194.252 196.156 194.464 195.646 194.84 195.269C195.217 194.892 195.728 194.681 196.26 194.681H312.734C313.267 194.681 313.778 194.892 314.154 195.269C314.531 195.646 314.743 196.156 314.743 196.689C314.743 197.222 314.531 197.732 314.154 198.109C313.778 198.486 313.267 198.697 312.734 198.697Z" fill="#ADB3C4"/>
<path d="M288.636 214.763H196.26C195.728 214.763 195.217 214.551 194.84 214.174C194.464 213.798 194.252 213.287 194.252 212.754C194.252 212.222 194.464 211.711 194.84 211.334C195.217 210.958 195.728 210.746 196.26 210.746H288.636C289.169 210.746 289.68 210.958 290.056 211.334C290.433 211.711 290.644 212.222 290.644 212.754C290.644 213.287 290.433 213.798 290.056 214.174C289.68 214.551 289.169 214.763 288.636 214.763Z" fill="#ADB3C4"/>
<path d="M270.422 13.9448C269.908 10.0854 268.01 6.54392 265.081 3.97894C262.152 1.41395 258.391 0 254.498 0C250.604 0 246.843 1.41395 243.914 3.97894C240.985 6.54392 239.087 10.0854 238.573 13.9448H214.334V46.0756H294.661V13.9448H270.422ZM254.498 21.9775C253.306 21.9775 252.141 21.6242 251.15 20.9622C250.16 20.3002 249.388 19.3593 248.932 18.2585C248.476 17.1576 248.356 15.9463 248.589 14.7777C248.821 13.609 249.395 12.5356 250.238 11.693C251.08 10.8505 252.154 10.2767 253.322 10.0442C254.491 9.81176 255.702 9.93107 256.803 10.3871C257.904 10.843 258.845 11.6152 259.507 12.6059C260.169 13.5967 260.522 14.7615 260.522 15.953C260.522 17.5508 259.887 19.0832 258.758 20.213C257.628 21.3428 256.095 21.9775 254.498 21.9775V21.9775Z" fill="#949AAF"/>
<path d="M294.661 38.043H214.334V46.0757H294.661V38.043Z" fill="#8288A1"/>
<path d="M226.91 130.231C225.37 130.231 223.984 129.967 222.752 129.439C221.52 128.889 220.552 128.119 219.848 127.129C219.144 126.139 218.792 124.984 218.792 123.664H222.818C222.906 124.654 223.291 125.468 223.973 126.106C224.677 126.744 225.656 127.063 226.91 127.063C228.208 127.063 229.22 126.755 229.946 126.139C230.672 125.501 231.035 124.687 231.035 123.697C231.035 122.927 230.804 122.3 230.342 121.816C229.902 121.332 229.341 120.958 228.659 120.694C227.999 120.43 227.075 120.144 225.887 119.836C224.391 119.44 223.17 119.044 222.224 118.648C221.3 118.23 220.508 117.592 219.848 116.734C219.188 115.876 218.858 114.732 218.858 113.302C218.858 111.982 219.188 110.827 219.848 109.837C220.508 108.847 221.432 108.088 222.62 107.56C223.808 107.032 225.183 106.768 226.745 106.768C228.967 106.768 230.782 107.329 232.19 108.451C233.62 109.551 234.412 111.069 234.566 113.005H230.408C230.342 112.169 229.946 111.454 229.22 110.86C228.494 110.266 227.537 109.969 226.349 109.969C225.271 109.969 224.391 110.244 223.709 110.794C223.027 111.344 222.686 112.136 222.686 113.17C222.686 113.874 222.895 114.457 223.313 114.919C223.753 115.359 224.303 115.711 224.963 115.975C225.623 116.239 226.525 116.525 227.669 116.833C229.187 117.251 230.419 117.669 231.365 118.087C232.333 118.505 233.147 119.154 233.807 120.034C234.489 120.892 234.83 122.047 234.83 123.499C234.83 124.665 234.511 125.765 233.873 126.799C233.257 127.833 232.344 128.669 231.134 129.307C229.946 129.923 228.538 130.231 226.91 130.231ZM255.307 113.896C255.307 115.062 255.032 116.162 254.482 117.196C253.932 118.23 253.052 119.077 251.842 119.737C250.632 120.375 249.081 120.694 247.189 120.694H243.031V130H239.269V107.065H247.189C248.949 107.065 250.434 107.373 251.644 107.989C252.876 108.583 253.789 109.397 254.383 110.431C254.999 111.465 255.307 112.62 255.307 113.896ZM247.189 117.625C248.619 117.625 249.686 117.306 250.39 116.668C251.094 116.008 251.446 115.084 251.446 113.896C251.446 111.388 250.027 110.134 247.189 110.134H243.031V117.625H247.189ZM262.657 110.101V116.833H270.577V119.902H262.657V126.931H271.567V130H258.895V107.032H271.567V110.101H262.657ZM283.692 107.065C286.134 107.065 288.268 107.538 290.094 108.484C291.942 109.408 293.361 110.75 294.351 112.51C295.363 114.248 295.869 116.283 295.869 118.615C295.869 120.947 295.363 122.971 294.351 124.687C293.361 126.403 291.942 127.723 290.094 128.647C288.268 129.549 286.134 130 283.692 130H276.201V107.065H283.692ZM283.692 126.931C286.376 126.931 288.433 126.205 289.863 124.753C291.293 123.301 292.008 121.255 292.008 118.615C292.008 115.953 291.293 113.874 289.863 112.378C288.433 110.882 286.376 110.134 283.692 110.134H279.963V126.931H283.692Z" fill="#575757"/>
<path d="M187.879 159.091H3.03027V300H187.879V159.091Z" fill="#DDE1E8"/>
<path d="M187.879 292.424H3.03027V300H187.879V292.424Z" fill="#C7CDD8"/>
<path d="M187.879 119.697H3.0303C1.35671 119.697 0 121.054 0 122.727V156.061C0 157.734 1.35671 159.091 3.0303 159.091H187.879C189.552 159.091 190.909 157.734 190.909 156.061V122.727C190.909 121.054 189.552 119.697 187.879 119.697Z" fill="#7AA8D7"/>
<path d="M190.909 148.485V156.061C190.909 156.864 190.59 157.635 190.022 158.203C189.453 158.772 188.682 159.091 187.879 159.091H3.0303C2.22662 159.091 1.45585 158.772 0.887555 158.203C0.319263 157.635 0 156.864 0 156.061V148.485C0 149.289 0.319263 150.059 0.887555 150.628C1.45585 151.196 2.22662 151.515 3.0303 151.515H187.879C188.682 151.515 189.453 151.196 190.022 150.628C190.59 150.059 190.909 149.289 190.909 148.485Z" fill="#5B8DC9"/>
<path d="M21.2122 134.848V110.606C21.2122 110.204 21.3718 109.819 21.6559 109.535C21.9401 109.251 22.3255 109.091 22.7273 109.091C23.1292 109.091 23.5145 109.251 23.7987 109.535C24.0828 109.819 24.2425 110.204 24.2425 110.606V134.848C24.2425 135.25 24.0828 135.636 23.7987 135.92C23.5145 136.204 23.1292 136.364 22.7273 136.364C22.3255 136.364 21.9401 136.204 21.6559 135.92C21.3718 135.636 21.2122 135.25 21.2122 134.848Z" fill="#949AAF"/>
<path d="M39.394 134.848V110.606C39.394 110.204 39.5537 109.819 39.8378 109.535C40.122 109.251 40.5074 109.091 40.9092 109.091C41.311 109.091 41.6964 109.251 41.9806 109.535C42.2647 109.819 42.4243 110.204 42.4243 110.606V134.848C42.4243 135.25 42.2647 135.636 41.9806 135.92C41.6964 136.204 41.311 136.364 40.9092 136.364C40.5074 136.364 40.122 136.204 39.8378 135.92C39.5537 135.636 39.394 135.25 39.394 134.848Z" fill="#949AAF"/>
<path d="M57.5757 134.848V110.606C57.5757 110.204 57.7353 109.819 58.0195 109.535C58.3036 109.251 58.689 109.091 59.0908 109.091C59.4927 109.091 59.8781 109.251 60.1622 109.535C60.4464 109.819 60.606 110.204 60.606 110.606V134.848C60.606 135.25 60.4464 135.636 60.1622 135.92C59.8781 136.204 59.4927 136.364 59.0908 136.364C58.689 136.364 58.3036 136.204 58.0195 135.92C57.7353 135.636 57.5757 135.25 57.5757 134.848Z" fill="#949AAF"/>
<path d="M75.7576 134.848V110.606C75.7576 110.204 75.9172 109.819 76.2013 109.535C76.4855 109.251 76.8709 109.091 77.2727 109.091C77.6746 109.091 78.0599 109.251 78.3441 109.535C78.6282 109.819 78.7879 110.204 78.7879 110.606V134.848C78.7879 135.25 78.6282 135.636 78.3441 135.92C78.0599 136.204 77.6746 136.364 77.2727 136.364C76.8709 136.364 76.4855 136.204 76.2013 135.92C75.9172 135.636 75.7576 135.25 75.7576 134.848Z" fill="#949AAF"/>
<path d="M93.9392 134.848V110.606C93.9392 110.204 94.0988 109.819 94.383 109.535C94.6671 109.251 95.0525 109.091 95.4544 109.091C95.8562 109.091 96.2416 109.251 96.5257 109.535C96.8099 109.819 96.9695 110.204 96.9695 110.606V134.848C96.9695 135.25 96.8099 135.636 96.5257 135.92C96.2416 136.204 95.8562 136.364 95.4544 136.364C95.0525 136.364 94.6671 136.204 94.383 135.92C94.0988 135.636 93.9392 135.25 93.9392 134.848Z" fill="#949AAF"/>
<path d="M112.121 134.848V110.606C112.121 110.204 112.281 109.819 112.565 109.535C112.849 109.251 113.234 109.091 113.636 109.091C114.038 109.091 114.423 109.251 114.708 109.535C114.992 109.819 115.151 110.204 115.151 110.606V134.848C115.151 135.25 114.992 135.636 114.708 135.92C114.423 136.204 114.038 136.364 113.636 136.364C113.234 136.364 112.849 136.204 112.565 135.92C112.281 135.636 112.121 135.25 112.121 134.848Z" fill="#949AAF"/>
<path d="M130.303 134.848V110.606C130.303 110.204 130.463 109.819 130.747 109.535C131.031 109.251 131.416 109.091 131.818 109.091C132.22 109.091 132.605 109.251 132.89 109.535C133.174 109.819 133.333 110.204 133.333 110.606V134.848C133.333 135.25 133.174 135.636 132.89 135.92C132.605 136.204 132.22 136.364 131.818 136.364C131.416 136.364 131.031 136.204 130.747 135.92C130.463 135.636 130.303 135.25 130.303 134.848Z" fill="#949AAF"/>
<path d="M148.485 134.848V110.606C148.485 110.204 148.644 109.819 148.929 109.535C149.213 109.251 149.598 109.091 150 109.091C150.402 109.091 150.787 109.251 151.071 109.535C151.356 109.819 151.515 110.204 151.515 110.606V134.848C151.515 135.25 151.356 135.636 151.071 135.92C150.787 136.204 150.402 136.364 150 136.364C149.598 136.364 149.213 136.204 148.929 135.92C148.644 135.636 148.485 135.25 148.485 134.848Z" fill="#949AAF"/>
<path d="M166.667 134.848V110.606C166.667 110.204 166.826 109.819 167.111 109.535C167.395 109.251 167.78 109.091 168.182 109.091C168.584 109.091 168.969 109.251 169.253 109.535C169.537 109.819 169.697 110.204 169.697 110.606V134.848C169.697 135.25 169.537 135.636 169.253 135.92C168.969 136.204 168.584 136.364 168.182 136.364C167.78 136.364 167.395 136.204 167.111 135.92C166.826 135.636 166.667 135.25 166.667 134.848Z" fill="#949AAF"/>
<path d="M187.879 159.091V256.061C187.879 260.079 186.282 263.933 183.441 266.774C180.6 269.616 176.746 271.212 172.727 271.212C168.709 271.212 164.855 269.616 162.014 266.774C159.172 263.933 157.576 260.079 157.576 256.061L3.03027 300V159.091H187.879Z" fill="#EDF0F4"/>
<path d="M172.727 271.212L3.03027 300L157.576 256.061C157.576 260.079 159.172 263.933 162.013 266.774C164.855 269.616 168.709 271.212 172.727 271.212Z" fill="#949AAF"/>
<path d="M41.6667 233.333C54.6371 233.333 65.1516 222.819 65.1516 209.848C65.1516 196.878 54.6371 186.364 41.6667 186.364C28.6964 186.364 18.1819 196.878 18.1819 209.848C18.1819 222.819 28.6964 233.333 41.6667 233.333Z" fill="#8CDD79"/>
<path d="M37.7095 219.677C37.1258 219.677 37.6303 220.048 29.0829 210.613C28.894 210.404 28.7878 210.121 28.7878 209.826C28.7878 209.532 28.894 209.249 29.0829 209.04C29.2718 208.832 29.528 208.714 29.7952 208.714C30.0623 208.714 30.3185 208.832 30.5075 209.04L37.7095 217.012L52.8258 200.326C53.0147 200.117 53.2709 200 53.5381 200C53.8053 200 54.0615 200.117 54.2504 200.326C54.4393 200.534 54.5454 200.817 54.5454 201.112C54.5454 201.407 54.4393 201.69 54.2504 201.898C36.9279 221.02 38.303 219.677 37.7095 219.677Z" fill="white"/>
<path d="M97.5069 208.637L104.635 220.088H100.411L95.2299 211.772L90.3789 220.088H86.1879L93.3159 208.637L86.1549 197.153H90.3789L95.5929 205.535L100.477 197.153H104.668L97.5069 208.637ZM132.921 197.153V220.088H129.159V204.38L122.163 220.088H119.556L112.527 204.38V220.088H108.765V197.153H112.824L120.876 215.138L128.895 197.153H132.921ZM141.628 217.052H149.383V220.088H137.866V197.153H141.628V217.052Z" fill="#575757"/>
</svg>
